<svg width="40" height="36" viewBox="0 0 40 36" fill="none" xmlns="http://www.w3.org/2000/svg">
<path d="M21.5986 16.8503C21.2402 17.5763 20.952 18.3228 20.7345 19.0892C20.0416 18.9384 19.3231 18.8329 18.5796 18.7718L18.5796 18.7718L18.5725 18.7713C17.6119 18.6993 16.5802 18.7308 15.481 18.8596C14.3038 18.9975 13.1748 19.3598 12.0987 19.938C11.1713 20.4319 10.3984 21.0005 9.82088 21.6614C9.36084 22.1879 8.97505 22.6972 8.67409 23.1885L7.5959 21.321C7.04254 20.3625 6.51078 19.4583 6.00067 18.6083C5.74957 18.1899 5.55654 17.8594 5.41925 17.6137C5.35052 17.4907 5.29856 17.3939 5.26142 17.321C5.2298 17.2589 5.2163 17.2284 5.21298 17.2209C5.21202 17.2187 5.21191 17.2185 5.21247 17.22L5.18344 17.1425L5.14206 17.0708C4.85129 16.5672 4.41367 16.1325 3.78973 15.9653L3.53091 16.9312L3.78973 15.9653C3.25807 15.8229 2.72121 15.882 2.23635 16.1486C1.68701 16.4143 1.26739 16.8633 1.0996 17.4895C0.921208 18.1553 1.11097 18.7961 1.42174 19.3344L7.33098 29.5695C7.58658 30.0122 8.01018 30.5406 8.55018 31.1348C9.17615 31.8236 9.96634 32.3944 10.896 32.8598C11.8867 33.3557 13.0237 33.6162 14.2809 33.6719C15.6505 33.7325 17.1135 33.3348 18.6446 32.5744C20.0177 31.9041 21.1202 31.1119 21.8818 30.1679C22.5717 29.3127 23.0873 28.4543 23.3907 27.5927L22.4475 27.2606L23.3907 27.5927C23.6694 26.8013 23.8303 26.0506 23.8272 25.3599C23.8253 24.9348 23.8269 24.6664 23.83 24.5297C23.9191 24.5847 24.0093 24.6383 24.1008 24.6905L24.1007 24.6906L24.1115 24.6966C24.9025 25.1357 25.8366 25.4551 26.893 25.6726C28.0789 25.9168 29.3661 25.8022 30.7256 25.3958C32.0451 25.0175 33.2384 24.3925 34.2979 23.5243C35.3574 22.6559 36.1846 21.6288 36.7644 20.4445C37.3518 19.2445 37.6294 17.9323 37.6116 16.5259C37.5931 15.062 37.1475 13.6138 36.327 12.1926L30.6431 2.34779C30.3397 1.82232 29.8682 1.30592 29.1567 1.17275L28.9735 2.15154L29.1567 1.17275C28.6257 1.07338 28.101 1.15733 27.6286 1.43007C27.1267 1.71979 26.8299 2.18905 26.6633 2.6778C26.4286 3.36671 26.5933 4.0408 26.9228 4.61137L30.4137 10.6578C29.9786 10.6592 29.5147 10.6975 29.025 10.768C28.2862 10.8745 27.5308 11.1168 26.7627 11.4755L26.745 11.4838L26.7276 11.4927C25.3855 12.1847 24.2776 13.0292 23.4362 14.0415C22.6574 14.9784 22.0396 15.9144 21.5986 16.8503Z" fill="#FF4BBD" stroke="white" stroke-width="2"/>
<path d="M32.8564 14.6389C33.2097 15.1689 34.4464 17.8188 31.7964 20.9988" stroke="white" stroke-width="2" stroke-linecap="round"/>
</svg>
