<svg width="46" height="46" viewBox="0 0 46 46" fill="none" xmlns="http://www.w3.org/2000/svg">
<path d="M41.7218 19.1029L43.3566 18.2653L41.7658 17.3469L17.2864 3.21369L15.7092 2.30311L15.7873 4.12259L16.775 27.1359L12.9516 33.7582L9.65137 31.8529L8.78534 31.3529L8.28534 32.2189L6.69536 34.9728L6.19536 35.8388L7.06138 36.3388L18.1615 42.7475L19.0275 43.2475L19.5275 42.3815L21.1175 39.6275L21.6175 38.7615L20.7515 38.2615L17.4513 36.3561L21.4017 29.5137L41.7218 19.1029ZM31.255 18.6223L21.3675 12.9137L21.3067 11.5161L32.5068 17.9825L31.255 18.6223Z" fill="#57A7E9" stroke="white" stroke-width="2"/>
<path d="M21.9216 24.7495L29.3416 21.0396" stroke="white" stroke-width="2" stroke-linecap="round"/>
</svg>
