<svg width="37" height="31" viewBox="0 0 37 31" fill="none" xmlns="http://www.w3.org/2000/svg">
<path d="M33.0397 9.68983C33.1707 10.0668 33.2495 10.2933 33.2969 10.4293C33.2968 10.4293 33.2967 10.4293 33.2966 10.4292L33.0397 9.68983ZM27.4807 11.8417C26.5298 12.5231 25.8706 13.2828 25.2394 14.0104C25.1936 14.0632 25.148 14.1158 25.1024 14.1681C24.0136 15.4193 22.8998 16.6274 20.0754 17.5105C17.2508 18.3933 15.6472 18.0349 14.0395 17.6267C13.9721 17.6096 13.9045 17.5923 13.8367 17.575C12.9037 17.3366 11.9295 17.0877 10.7601 17.069C11.2076 16.8098 11.6022 16.5583 11.9477 16.3211C12.6337 15.8503 13.1248 15.4368 13.4517 15.1319C13.4719 15.113 13.4915 15.0945 13.5105 15.0765C13.5117 15.0768 13.513 15.0771 13.5142 15.0774C13.8792 15.1576 14.3927 15.2548 14.9946 15.3245C16.1793 15.4618 17.7923 15.5034 19.3005 15.0319C20.8087 14.5603 22.1111 13.6073 23.007 12.8196C23.4621 12.4195 23.829 12.0471 24.0834 11.7732C24.0844 11.7722 24.0853 11.7712 24.0863 11.7701C24.1123 11.7741 24.139 11.7782 24.1664 11.7822C24.6089 11.8466 25.2481 11.9068 26.0802 11.9031C26.4989 11.9013 26.9659 11.8833 27.4807 11.8417ZM3.5949 14.0792C2.88385 13.3761 2.88359 13.3764 2.88332 13.3766L2.88275 13.3772L2.8815 13.3785L2.8786 13.3814L2.87121 13.3891L2.85029 13.411C2.83374 13.4286 2.81205 13.4521 2.78612 13.4813C2.73437 13.5394 2.66516 13.6205 2.5859 13.7222C2.42863 13.9239 2.22508 14.2148 2.0401 14.5746C1.67671 15.2815 1.33379 16.3604 1.70813 17.558L1.70832 17.5586C1.89578 18.157 2.21338 18.6187 2.62264 18.9459C3.02447 19.2672 3.4637 19.4186 3.84219 19.4847C4.21759 19.5502 4.55614 19.5362 4.7939 19.5093C4.8809 19.4994 4.95763 19.4875 5.02162 19.4758C4.70918 20.0634 4.62399 20.7235 4.83464 21.3976C5.10654 22.268 5.80855 23.3021 6.76935 24.2897C7.75044 25.2982 9.07086 26.3304 10.6782 27.172C13.9051 28.8617 18.3051 29.7893 23.4149 28.1929L23.415 28.1928C28.5244 26.5959 31.6129 23.3277 33.3031 20.1008C34.145 18.4935 34.6425 16.893 34.8746 15.5052C35.1019 14.146 35.0899 12.8961 34.8177 12.0257C34.607 11.3518 34.1608 10.8575 33.5691 10.5524C33.6286 10.5255 33.6989 10.4914 33.7766 10.4496C33.9872 10.3362 34.2734 10.1548 34.5444 9.88702C34.8177 9.61704 35.0923 9.2423 35.2392 8.74928C35.3889 8.24713 35.3866 7.68683 35.1994 7.08844L35.1993 7.08812C34.8245 5.89107 33.9291 5.19975 33.2282 4.82568C32.8715 4.63531 32.5388 4.51208 32.2948 4.43589C32.1719 4.39749 32.0689 4.37022 31.9933 4.35192C31.9554 4.34275 31.9242 4.33578 31.9006 4.33074L31.8709 4.3246L31.8605 4.32255L31.8564 4.32177L31.8546 4.32144L31.8538 4.32128C31.8538 4.32128 31.8443 4.32372 31.827 4.32902L31.8289 4.31693C31.4615 4.25742 30.8884 4.04332 30.0677 3.69612C29.8749 3.61453 29.6712 3.52691 29.4588 3.43557C28.8205 3.16103 28.1039 2.85285 27.369 2.57369C25.4514 1.84526 23.0618 1.1679 20.9511 1.82753C19.0994 2.40619 18.1931 2.94658 17.5119 3.43791C17.3888 3.52672 17.2813 3.60685 17.1834 3.67984C16.7606 3.99501 16.5164 4.17705 15.9616 4.35056C15.4065 4.52412 15.102 4.51359 14.5748 4.49537C14.4529 4.49116 14.3191 4.48653 14.1676 4.48368C13.3279 4.46785 12.2752 4.53979 10.4236 5.11845L10.4235 5.11847C8.31325 5.77813 6.73484 7.69562 5.57358 9.3863C5.12812 10.0348 4.7144 10.6967 4.3459 11.2863C4.22372 11.4818 4.10652 11.6693 3.99477 11.8457C3.51802 12.5985 3.16906 13.1009 2.90102 13.3592L2.88385 13.3761L3.5949 14.0792ZM5.17623 19.2181C5.13761 19.0792 5.07332 18.8484 4.96642 18.465L5.17638 19.2179C5.17633 19.218 5.17628 19.2181 5.17623 19.2181Z" fill="#FF3F79" stroke="white" stroke-width="2" stroke-linejoin="round"/>
</svg>
