<svg width="38" height="27" viewBox="0 0 38 27" fill="none" xmlns="http://www.w3.org/2000/svg">
<path d="M19.4206 21.3202L19.4237 21.3135L19.4268 21.3068C19.5422 21.0536 19.875 20.5547 20.5192 19.7616C21.1246 19.0163 21.8592 18.2511 22.728 17.4671C23.5867 16.6921 24.5136 15.9852 25.5094 15.3467C26.4592 14.7375 27.3681 14.3657 28.2382 14.202C30.1908 13.8699 31.7198 13.6118 32.8258 13.4273C33.4312 13.3264 33.9766 13.1811 34.4353 12.973C34.8852 12.7689 35.3111 12.4773 35.6003 12.0495C35.894 11.6336 36.0352 11.1543 36.0666 10.6582C36.1022 10.0976 35.8333 9.65158 35.476 9.35894C35.1549 9.09596 34.7491 8.93835 34.3555 8.8329L20.1798 5.03453L5.90352 1.20922C5.51372 1.10477 5.08205 1.05305 4.65854 1.15087C4.19975 1.25684 3.81541 1.52497 3.56204 1.93014C3.07507 2.70888 3.26622 3.63026 3.57672 4.38297C3.76414 4.86712 4.12457 5.29194 4.53114 5.66241C4.91557 6.01272 5.36202 6.38471 5.86777 6.77802C6.36005 7.16085 6.8751 7.55864 7.41292 7.97137C7.91041 8.35317 8.38259 8.76962 8.82955 9.22109C9.24359 9.65579 9.70506 10.327 10.2031 11.2768C10.7043 12.2324 11.1431 13.2324 11.5191 14.2773C11.8988 15.3322 12.2058 16.3548 12.4413 17.3452C12.6755 18.3306 12.7407 19.0355 12.6957 19.5032C12.6302 20.1864 12.6372 20.8165 12.7508 21.3655C12.8537 21.8623 13.0268 22.3447 13.3266 22.7341C13.5773 23.0597 13.8852 23.3323 14.2562 23.5216C14.5282 23.6604 14.805 23.7717 15.0852 23.8468C15.7707 24.0305 16.4943 23.9441 17.2034 23.7063C18.2007 23.3719 18.8984 22.4216 19.4206 21.3202Z" fill="#AF2FFF" stroke="white" stroke-width="2"/>
<path d="M18.9167 15.3702C19.8001 13.7802 22.5207 10.7062 26.3367 11.1302" stroke="white" stroke-width="2" stroke-linecap="round"/>
</svg>
