<svg width="94" height="19" viewBox="0 0 94 19" fill="none" xmlns="http://www.w3.org/2000/svg">
<path d="M7.436 18.26C6.20533 18.26 5.07 18.0867 4.03 17.74C3.00733 17.3933 1.98467 16.8213 0.962 16.024L2.314 13.112C3.26733 13.7707 4.16867 14.2733 5.018 14.62C5.88467 14.9493 6.69067 15.114 7.436 15.114C8.44133 15.114 9.21267 14.9233 9.75 14.542C10.3047 14.1607 10.582 13.632 10.582 12.956C10.582 12.4707 10.4087 12.0633 10.062 11.734C9.71533 11.3873 9.21267 11.1447 8.554 11.006L6.162 10.538C4.498 10.2433 3.302 9.71467 2.574 8.952C1.846 8.172 1.482 7.21 1.482 6.066C1.482 5.00867 1.70733 4.05533 2.158 3.206C2.60867 2.33933 3.31067 1.65467 4.264 1.152C5.21733 0.631999 6.43933 0.371999 7.93 0.371999C8.93533 0.371999 9.932 0.501999 10.92 0.761999C11.9253 1.022 12.922 1.516 13.91 2.244L12.558 5.156C11.726 4.67067 10.9287 4.28067 10.166 3.986C9.42067 3.674 8.71 3.518 8.034 3.518C7.11533 3.518 6.43067 3.7 5.98 4.064C5.54667 4.41067 5.33 4.87867 5.33 5.468C5.33 5.95333 5.50333 6.33467 5.85 6.612C6.19667 6.872 6.69933 7.07133 7.358 7.21L9.75 7.678C11.3967 7.97267 12.584 8.562 13.312 9.446C14.0573 10.33 14.43 11.344 14.43 12.488C14.43 14.256 13.832 15.66 12.636 16.7C11.44 17.74 9.70667 18.26 7.436 18.26ZM17.1287 18V0.631999H29.7647V3.83H20.9247V7.548H28.9847V10.564H20.9247V14.802H29.7647V18H17.1287ZM31.3146 18L37.5026 9.056L31.5746 0.631999H36.0466L39.8946 6.326L43.7686 0.631999H48.2146L42.2866 9.056L48.4746 18H44.0286L39.8946 11.786L35.7866 18H31.3146ZM55.8208 18V11.422L49.1388 0.631999H53.5848L57.7448 7.86L61.8528 0.631999H66.2988L59.6168 11.422V18H55.8208ZM74.3592 18V0.631999H86.9952V3.83H78.1552V7.548H86.2152V10.564H78.1552V18H74.3592ZM89.6951 18V0.631999H93.4911V18H89.6951Z" fill="url(#paint0_linear_11175_5)"/>
<defs>
<linearGradient id="paint0_linear_11175_5" x1="-1.36837e-08" y1="8.5" x2="96" y2="15" gradientUnits="userSpaceOnUse">
<stop stop-color="#7360FF"/>
<stop offset="1" stop-color="#FF47BB"/>
</linearGradient>
</defs>
</svg>
