<svg width="53" height="52" viewBox="0 0 53 52" fill="none" xmlns="http://www.w3.org/2000/svg">
  <path d="M50.9585 33.7676C46.6557 47.4672 32.0283 55.0952 18.2874 50.8053C4.54649 46.5154 -3.10456 31.932 1.19829 18.2324C5.50115 4.53282 20.1285 -3.09523 33.8694 1.19469C47.6103 5.48461 55.2614 20.068 50.9585 33.7676Z" fill="#E9E9E9"/>
  <path d="M50.4815 33.6178C50.3807 33.9388 50.2741 34.2563 50.1619 34.5704L50.6327 34.7386C50.4014 35.3859 50.1467 36.0188 49.8699 36.6364L49.4136 36.4319C49.1383 37.0461 48.8406 37.6451 48.5218 38.228L48.9605 38.4679C48.6315 39.0697 48.2804 39.6548 47.9087 40.2226L47.4904 39.9488C47.1226 40.5105 46.7342 41.055 46.3265 41.5814L46.7218 41.8875C46.3027 42.4287 45.8637 42.9511 45.4061 43.4541L45.0363 43.1177C44.5851 43.6136 44.1155 44.0903 43.629 44.547L43.9712 44.9116C43.4732 45.3791 42.9577 45.8261 42.4263 46.2517L42.1137 45.8614C41.591 46.2801 41.0525 46.6777 40.4998 47.0534L40.7809 47.4669C40.2166 47.8505 39.6378 48.2118 39.0458 48.5499L38.7978 48.1158C38.217 48.4476 37.6232 48.7568 37.0182 49.0425L37.2317 49.4946C36.6154 49.7856 35.9875 50.0527 35.3496 50.2952L35.1719 49.8278C34.5473 50.0652 33.9128 50.2785 33.27 50.467L33.4106 50.9468C32.7574 51.1383 32.0957 51.3046 31.427 51.4449L31.3243 50.9556C30.6713 51.0927 30.0116 51.2045 29.3464 51.2903L29.4104 51.7862C28.7361 51.8733 28.0564 51.9341 27.3727 51.9681L27.3479 51.4687C26.6829 51.5017 26.0141 51.5088 25.3428 51.4891L25.3282 51.9889C24.6499 51.9691 23.9691 51.9226 23.2872 51.8486L23.3411 51.3516C22.6805 51.2799 22.0187 51.1821 21.3571 51.0573L21.2645 51.5487C20.5993 51.4232 19.9344 51.2711 19.2708 51.0917L19.4013 50.609C19.0793 50.5219 18.7576 50.4283 18.4364 50.328C18.1155 50.2278 17.798 50.1219 17.484 50.0105L17.3167 50.4817C16.6696 50.252 16.0369 49.999 15.4192 49.7241L15.6226 49.2673C15.0081 48.9938 14.4089 48.6981 13.8256 48.3816L13.5871 48.8211C12.9848 48.4942 12.3992 48.1455 11.8308 47.7763L12.1032 47.357C11.5405 46.9915 10.9952 46.6056 10.4679 46.2005L10.1633 46.597C9.62099 46.1804 9.09734 45.7439 8.59312 45.289L8.92805 44.9178C8.43065 44.469 7.95252 44.002 7.49441 43.5181L7.13131 43.8618C6.66205 43.3661 6.21341 42.8531 5.78616 42.3242L6.17511 42.01C5.75464 41.4894 5.35529 40.9533 4.97781 40.4028L4.56546 40.6856C4.1799 40.1234 3.81674 39.5466 3.47677 38.9568L3.90996 38.7071C3.57621 38.1281 3.26524 37.5362 2.97781 36.933L2.52644 37.1481C2.23353 36.5334 1.96461 35.9071 1.72045 35.2707L2.18728 35.0916C1.94816 34.4684 1.73328 33.8353 1.54339 33.1939L1.06396 33.3358C0.870923 32.6837 0.703218 32.0232 0.561613 31.3556L1.05073 31.2518C0.912451 30.5999 0.799556 29.9412 0.71279 29.277L0.217003 29.3418C0.129019 28.6684 0.0673799 27.9895 0.0328364 27.3066L0.532198 27.2813C0.498606 26.6172 0.491146 25.9492 0.510536 25.2788L0.0107452 25.2643C0.0303398 24.5868 0.0768201 23.9067 0.150899 23.2255L0.647969 23.2796C0.719707 22.6199 0.817843 21.9591 0.943059 21.2984L0.451805 21.2053C0.577697 20.541 0.730427 19.877 0.910652 19.2143L1.39312 19.3455C1.48056 19.0241 1.5746 18.7029 1.67532 18.3822C1.77614 18.0612 1.88273 17.7437 1.99495 17.4296L1.52409 17.2614C1.75535 16.6141 2.01006 15.9812 2.28694 15.3635L2.7432 15.5681C3.01853 14.9539 3.31622 14.3549 3.63495 13.772L3.19625 13.5321C3.52529 12.9303 3.87636 12.3452 4.24809 11.7774L4.66641 12.0512C5.03421 11.4895 5.42262 10.945 5.8303 10.4186L5.43498 10.1125C5.85408 9.57132 6.29312 9.04887 6.75067 8.54589L7.12053 8.88235C7.57172 8.38637 8.04127 7.90966 8.52777 7.45297L8.18556 7.08842C8.68364 6.62086 9.19912 6.1739 9.73052 5.74831L10.0431 6.13857C10.5658 5.71992 11.1043 5.32233 11.657 4.94658L11.3759 4.53308C11.9402 4.14948 12.519 3.78821 13.111 3.45006L13.359 3.88421C13.9398 3.55236 14.5336 3.24321 15.1386 2.95752L14.9251 2.50539C15.5414 2.21439 16.1693 1.94727 16.8072 1.70481L16.9849 2.17219C17.6095 1.93477 18.244 1.72146 18.8868 1.53302L18.7462 1.05321C19.3994 0.861722 20.0611 0.695417 20.7298 0.55506L20.8325 1.0444C21.4855 0.907344 22.1452 0.79552 22.8104 0.709664L22.7464 0.213778C23.4207 0.126739 24.1004 0.0658737 24.7841 0.0319259L24.8089 0.531311C25.4739 0.498295 26.1427 0.491239 26.814 0.510856L26.8286 0.0110698C27.5069 0.0308905 28.1877 0.0774159 28.8696 0.151353L28.8157 0.64844C29.4763 0.720063 30.1381 0.817917 30.7997 0.942677L30.8923 0.451337C31.5575 0.576772 32.2224 0.728876 32.886 0.908305L32.7555 1.39097C33.0775 1.47805 33.3992 1.57169 33.7204 1.67197C34.0413 1.77216 34.3588 1.87806 34.6728 1.98952L34.84 1.51832C35.4872 1.74804 36.1199 2.00098 36.7375 2.27589L36.5342 2.73269C37.1487 3.00619 37.7479 3.30185 38.3312 3.61838L38.5697 3.17892C39.172 3.50577 39.7576 3.85447 40.326 4.22368L40.0536 4.64298C40.6162 5.00845 41.1616 5.3944 41.6889 5.79948L41.9935 5.40298C42.5358 5.81962 43.0595 6.2561 43.5637 6.71099L43.2287 7.08224C43.7262 7.53099 44.2043 7.99803 44.6624 8.48194L45.0255 8.1382C45.4947 8.63389 45.9434 9.14693 46.3706 9.67584L45.9817 9.99003C46.4022 10.5105 46.8015 11.0467 47.179 11.5972L47.5913 11.3144C47.9769 11.8766 48.3401 12.4534 48.68 13.0432L48.2468 13.2929C48.5806 13.8719 48.8916 14.4638 49.179 15.067L49.6304 14.8519C49.9233 15.4666 50.1922 16.0929 50.4363 16.7293L49.9695 16.9084C50.2086 17.5316 50.4235 18.1647 50.6134 18.8061L51.0928 18.6642C51.2859 19.3163 51.4536 19.9768 51.5952 20.6444L51.1061 20.7482C51.2443 21.4001 51.3572 22.0588 51.444 22.7229L51.9398 22.6582C52.0278 23.3316 52.0894 24.0105 52.124 24.6934L51.6246 24.7187C51.6582 25.3828 51.6657 26.0508 51.6463 26.7212L52.1461 26.7357C52.1265 27.4132 52.08 28.0933 52.0059 28.7745L51.5088 28.7204C51.4371 29.3801 51.339 30.0409 51.2137 30.7016L51.705 30.7947C51.5791 31.459 51.4264 32.123 51.2461 32.7857L50.7637 32.6545C50.6762 32.9759 50.5822 33.2971 50.4815 33.6178Z" stroke="black" stroke-opacity="0.4" stroke-dasharray="2 2"/>
  <path d="M25.0885 16.871C25.4429 16.0868 26.5566 16.0868 26.911 16.871L28.8695 21.205C29.015 21.5269 29.3196 21.7482 29.6708 21.7871L34.3978 22.3105C35.2532 22.4052 35.5974 23.4644 34.961 24.0438L31.4444 27.2458C31.1832 27.4836 31.0668 27.8417 31.1383 28.1877L32.1013 32.8451C32.2756 33.6879 31.3745 34.3425 30.6268 33.9164L26.4949 31.5613C26.188 31.3864 25.8115 31.3864 25.5046 31.5613L21.3726 33.9164C20.6249 34.3425 19.7239 33.6879 19.8982 32.8451L20.8611 28.1877C20.9327 27.8417 20.8163 27.4836 20.5551 27.2458L17.0385 24.0438C16.4021 23.4644 16.7463 22.4052 17.6017 22.3105L22.3287 21.7871C22.6799 21.7482 22.9844 21.5269 23.1299 21.205L25.0885 16.871Z" fill="#ADADAD"/>
</svg>
