<svg width="234" height="158" viewBox="0 0 234 158" fill="none" xmlns="http://www.w3.org/2000/svg">
<path d="M27.5303 32.3182C13.6455 34.2333 7.7803 39.5 4.78788 44.8864C1.79545 50.2727 2.39394 59.25 2.39394 62.8409C2.39394 65.7136 5.18687 70.0227 6.58333 71.8182L0 73.0152V141.841L27.5303 158L59.25 152.614V144.235L69.4242 150.22L99.947 144.235V130.47C101.942 132.664 109.642 136.455 124.485 134.061C139.327 131.667 149.821 120.295 153.212 114.909L181.939 130.47L214.258 123.886V86.1818L233.409 82.5909V52.0682L209.47 38.303L228.023 12.5682L209.47 0C154.609 9.97475 41.4152 30.403 27.5303 32.3182Z" fill="#9514FF"/>
<path fill-rule="evenodd" clip-rule="evenodd" d="M181.341 13.1668L170.568 14.9622L171.012 15.4836L169.97 14.9622L159.197 16.7577L154.409 23.9395L146.629 19.1516L136.455 20.9471L136.222 32.8358L126.28 25.735C112.226 27.1691 105.059 33.973 101.743 40.9997V35.9092L91.5683 28.7274L75.4092 32.3183L71.8183 44.288L70.6213 41.894L61.0456 34.1137L44.8865 37.7046V47.5796L36.5076 41.2955C32.7172 41.6945 23.8198 43.2107 18.5531 46.0834C13.2864 48.9561 11.5708 55.6591 11.3713 58.6516L18.5531 62.2425L10.1743 68.8258C11.7703 70.2223 16.1592 73.8531 20.947 77.2046C26.9319 81.394 40.697 79.0001 47.2804 73.0152C47.9917 72.3686 48.58 71.7001 49.0621 71.0216L54.4622 75.4092L64.038 73.6137V65.8334L72.4168 71.8183L83.1895 70.0228L84.985 64.038L90.9698 68.8258L101.743 67.0304V55.6877L111.917 63.4395C118.101 65.0355 132.146 65.5941 138.849 55.0607C139.046 54.7504 139.234 54.4428 139.414 54.138L145.432 58.6516L155.008 56.8562L160.394 49.0759L168.174 54.4622L180.743 52.6668L169.371 36.5077L178.216 23.9395L184.333 31.1213V43.091L193.311 50.2728L204.083 48.4774V35.9092L218.447 14.9622L208.871 7.7804L197.5 10.1743L189.72 22.144L181.341 13.1668ZM44.8865 57.6142V55.1006L40.697 55.6591L44.8865 57.6142Z" fill="#2E0E49"/>
<path fill-rule="evenodd" clip-rule="evenodd" d="M184.065 43.0208V30.7008L169.862 14.6208L181.347 12.5959L189.276 21.5772L197.173 9.80529L208.657 7.78033L194.535 28.6862V41.1747L184.065 43.0208ZM135.997 51.4966V20.5922L146.386 18.7604V35.5689L158.884 16.5566L169.841 14.6247L159.687 29.3029L170.247 45.4575L158.397 47.5468L153.103 38.8207L145.493 49.8222L135.997 51.4966ZM104.037 55.8548C106.824 56.7095 110.07 56.8101 113.776 56.1566C117.483 55.5031 120.716 54.26 123.475 52.4274C126.262 50.59 128.426 48.3267 129.968 45.6374C131.51 42.9206 132.281 39.9414 132.281 36.6999C132.281 33.4584 131.51 30.7649 129.968 28.6194C128.426 26.4464 126.262 24.9326 123.475 24.0778C120.716 23.2183 117.483 23.1153 113.776 23.7689C110.07 24.4224 106.824 25.6678 104.037 27.5052C101.278 29.3378 99.1271 31.6125 97.5851 34.3293C96.0431 37.0186 95.2721 39.984 95.2721 43.2256C95.2721 46.4671 96.0431 49.1743 97.5851 51.3473C99.1271 53.4928 101.278 54.9953 104.037 55.8548ZM118.037 45.1451C116.847 45.8769 115.427 46.3883 113.776 46.6793C112.126 46.9703 110.706 46.9597 109.516 46.6477C108.325 46.3082 107.405 45.7012 106.756 44.8267C106.134 43.92 105.823 42.7662 105.823 41.3652C105.823 39.9642 106.134 38.7144 106.756 37.6157C107.405 36.4848 108.325 35.5534 109.516 34.8216C110.706 34.0623 112.126 33.5372 113.776 33.2462C115.427 32.9552 116.847 32.9795 118.037 33.319C119.228 33.6311 120.134 34.2404 120.756 35.1471C121.405 36.0216 121.73 37.1593 121.73 38.5603C121.73 39.9613 121.405 41.2272 120.756 42.3581C120.134 43.4568 119.228 44.3858 118.037 45.1451ZM91.5227 28.4343V59.3387L81.5807 61.0917V39.4039L73.2618 62.5586L62.914 64.3832L54.5951 44.2628V65.85L44.653 67.6031V36.6987L60.8444 33.8438L68.1204 52.7135L75.3314 31.2893L91.5227 28.4343ZM18.9613 61.9554L8.32935 63.8301C8.38345 65.9907 9.10036 67.7735 10.4801 69.1784C11.8868 70.5786 13.8347 71.5126 16.3236 71.9802C18.8125 72.4479 21.7072 72.3907 25.0076 71.8088C28.1999 71.2459 30.9864 70.2876 33.3671 68.9338C35.7748 67.5478 37.6415 65.8863 38.9671 63.9494C40.2927 62.0125 40.9555 59.904 40.9555 57.6239C40.9555 55.8109 40.5227 54.3626 39.657 53.2791C38.8183 52.1908 37.4792 51.4654 35.6395 51.103C33.7999 50.7132 31.3922 50.6845 28.4163 51.0169L22.7352 51.6478C21.3014 51.7907 20.3274 51.7427 19.8134 51.5037C19.3265 51.2599 19.083 50.9045 19.083 50.4375C19.083 49.7507 19.5023 49.1823 20.341 48.7323C21.2067 48.2774 22.3835 47.9189 23.8714 47.6565C25.0347 47.4514 26.0221 47.3734 26.8337 47.4226C27.6453 47.4718 28.2676 47.6368 28.7004 47.9176C29.1603 48.1936 29.4308 48.5717 29.512 49.0518L40.1439 47.1771C40.0086 45.1132 39.2376 43.4224 37.8309 42.1046C36.4511 40.7821 34.5709 39.9049 32.1903 39.4731C29.8366 39.0091 27.1313 39.0466 24.0743 39.5856C20.9361 40.1389 18.1902 41.0077 15.8366 42.1919C13.51 43.3713 11.6975 44.8447 10.3989 46.612C9.10036 48.3793 8.45109 50.4167 8.45109 52.7242C8.45109 55.4713 9.46558 57.5038 11.4946 58.8217C13.5236 60.1397 16.8241 60.5466 21.396 60.0426L26.4279 59.485C28.0241 59.3135 29.0791 59.3609 29.5932 59.6274C30.1072 59.8664 30.3642 60.2332 30.3642 60.7276C30.3642 61.4693 29.9043 62.0861 28.9845 62.578C28.0917 63.065 26.8337 63.4517 25.2105 63.7379C23.9661 63.9573 22.8975 64.0358 22.0047 63.9735C21.112 63.8837 20.4086 63.6781 19.8946 63.3566C19.3806 63.0077 19.0695 62.5406 18.9613 61.9554Z" fill="white"/>
<path d="M48.4773 89.1742L29.9242 77.803L10.7727 81.3939V136.455L29.9242 147.227L48.4773 144.235V123.886L52.6666 123.288V129.273L71.8182 140.045L90.3712 136.455V81.3939L71.8182 70.6212L52.6666 74.2121V92.7652L48.4773 93.3636V89.1742Z" fill="#2E0E49"/>
<path d="M184.803 72.9676L203.5 69.6709V116.691L184.803 119.988V72.9676ZM165.237 68.2498L223.065 58.0531V74.9775L165.237 85.1742V68.2498Z" fill="#2E0E49"/>
<path d="M223.235 58.0531L204.083 47.2803L146.629 58.0531V74.8105L165.78 85.5832V109.523L184.932 120.295L203.485 116.704V78.4014L223.235 74.8105V58.0531Z" fill="#2E0E49"/>
<path d="M165.804 62.2902L184.501 58.9935V106.014L165.804 109.311V62.2902ZM146.238 57.5723L204.067 47.3756V64.3001L146.238 74.4967V57.5723Z" fill="white"/>
<path d="M10.9253 81.4316L29.6217 78.135V133.323L10.9253 136.62V81.4316ZM52.8109 74.0461L71.5073 70.7494V125.938L52.8109 129.234V74.0461ZM21.5054 98.1829L60.13 91.3724V108.15L21.5054 114.96V98.1829Z" fill="white"/>
<path d="M93.6259 95.8092C93.6258 93.1993 94.3935 90.6488 95.8309 88.4837C97.2682 86.3187 99.3097 84.6376 101.694 83.6556C104.079 82.6735 106.698 82.4351 109.218 82.9708C110.885 83.3255 112.459 84.009 113.853 84.9734C115.023 85.783 116.647 85.783 117.818 84.9734C119.212 84.009 120.785 83.3255 122.453 82.9708C124.972 82.4351 127.592 82.6735 129.976 83.6556C132.361 84.6376 134.403 86.3187 135.84 88.4837C137.277 90.6488 138.045 93.1993 138.045 95.8092C138.05 97.858 137.579 99.8792 136.67 101.709C135.762 103.539 134.441 105.127 132.815 106.343L118.176 118.575C117.362 119.255 116.336 119.619 115.281 119.603C114.227 119.586 113.212 119.189 112.42 118.483L98.161 105.783C96.7377 104.553 95.595 103.024 94.8119 101.302C94.0289 99.5796 93.6242 97.7056 93.6259 95.8092Z" fill="white"/>
<path fill-rule="evenodd" clip-rule="evenodd" d="M81.4265 93.0139C81.007 86.7212 84.5487 73.8264 96.6712 65.8784C97.43 65.3809 98.4263 65.8826 98.5666 66.7791C99.2657 71.2477 100.655 74.1493 103.089 76.5457C103.418 76.8701 103.909 76.9633 104.34 76.7968C113.917 73.1003 121.375 65.662 118.731 47.5282C118.585 46.5274 119.591 45.7453 120.478 46.2316C131.401 52.2222 150.537 69.6079 150.245 93.0139C150.245 119.603 128.348 128.674 115.21 128.674C102.072 128.674 81.4265 118.352 81.4265 93.0139ZM95.8306 88.4837C94.3933 90.6487 93.6256 93.1993 93.6256 95.8092C93.6239 97.7056 94.0286 99.5796 94.8117 101.302C95.5947 103.024 96.7375 104.553 98.1608 105.783L112.419 118.483C113.212 119.189 114.226 119.586 115.281 119.602C116.336 119.619 117.362 119.255 118.176 118.575L132.815 106.343C134.441 105.127 135.762 103.539 136.67 101.709C137.579 99.8792 138.05 97.858 138.045 95.8092C138.045 93.1993 137.277 90.6487 135.84 88.4837C134.402 86.3187 132.361 84.6376 129.976 83.6555C127.591 82.6735 124.972 82.4351 122.453 82.9708C120.785 83.3255 119.211 84.0089 117.817 84.9734C116.647 85.783 115.023 85.783 113.853 84.9734C112.459 84.0089 110.885 83.3255 109.217 82.9708C106.698 82.4351 104.079 82.6735 101.694 83.6555C99.3095 84.6376 97.2679 86.3187 95.8306 88.4837ZM109.575 93.4997C110.118 93.2144 110.705 93.8009 110.419 94.3444L108.951 97.1422C108.855 97.3242 108.855 97.5416 108.951 97.7236L110.419 100.521C110.705 101.065 110.118 101.651 109.575 101.366L106.777 99.8978C106.595 99.8022 106.377 99.8022 106.195 99.8978L103.398 101.366C102.854 101.651 102.268 101.065 102.553 100.521L104.021 97.7236C104.117 97.5416 104.117 97.3242 104.021 97.1422L102.553 94.3444C102.268 93.8009 102.854 93.2144 103.398 93.4997L106.195 94.968C106.377 95.0636 106.595 95.0636 106.777 94.968L109.575 93.4997ZM129.814 94.3444C130.099 93.8009 129.513 93.2144 128.969 93.4997L126.171 94.968C125.989 95.0636 125.772 95.0636 125.59 94.968L122.792 93.4997C122.249 93.2144 121.662 93.8009 121.947 94.3444L123.416 97.1422C123.511 97.3242 123.511 97.5416 123.416 97.7236L121.947 100.521C121.662 101.065 122.249 101.651 122.792 101.366L125.59 99.8978C125.772 99.8022 125.989 99.8022 126.171 99.8978L128.969 101.366C129.513 101.651 130.099 101.065 129.814 100.521L128.346 97.7236C128.25 97.5416 128.25 97.3242 128.346 97.1422L129.814 94.3444Z" fill="url(#paint0_linear_60_6289)"/>
<defs>
<linearGradient id="paint0_linear_60_6289" x1="115.821" y1="128.674" x2="115.821" y2="46.0833" gradientUnits="userSpaceOnUse">
<stop stop-color="#FFA8E8"/>
<stop offset="1" stop-color="#FF00D9"/>
</linearGradient>
</defs>
</svg>
