<svg width="122" height="102" viewBox="0 0 122 102" fill="none" xmlns="http://www.w3.org/2000/svg">
<path d="M77.85 37.5C72.0159 37.5 66.7507 39.9342 63 43.8364C59.2493 39.9342 53.9841 37.5 48.15 37.5C36.7303 37.5 27.5 46.8123 27.5 58.2659C27.5 68.3532 33.3836 77.6701 40.3867 84.7875C47.4125 91.9281 55.9883 97.2911 62.2071 99.3709C62.7217 99.543 63.2783 99.543 63.7929 99.3709C70.0117 97.2911 78.5875 91.9281 85.6133 84.7875C92.6164 77.6701 98.5 68.3532 98.5 58.2659C98.5 46.8123 89.2696 37.5 77.85 37.5Z" fill="#FF2681" stroke="white" stroke-width="5" stroke-linejoin="round"/>
<path d="M108.483 41.6388L108.483 41.6389L108.495 41.6321C108.586 41.5813 108.86 41.4746 109.413 41.3267C109.91 41.1938 110.471 41.0918 111.1 41.0238C111.715 40.9573 112.336 40.9423 112.961 40.9791C113.534 41.0128 113.991 41.1322 114.354 41.3117C115.301 41.8033 116.041 42.1891 116.575 42.4691C117.141 42.7657 117.878 43.0362 118.575 42.7855C118.923 42.6666 119.206 42.4502 119.43 42.194C119.738 41.8408 119.807 41.4025 119.732 41.0232C119.668 40.6958 119.503 40.4218 119.353 40.2181L114.651 33.821L109.915 27.3786C109.757 27.1635 109.532 26.9287 109.218 26.7894C108.872 26.6361 108.497 26.6349 108.153 26.7732C107.5 27.0353 107.206 27.6699 107.061 28.1542C106.942 28.5279 106.954 28.9186 107.002 29.2553C107.045 29.5566 107.107 29.8856 107.186 30.2404C107.261 30.5777 107.341 30.9291 107.425 31.2948C107.498 31.6083 107.549 31.9294 107.578 32.2585C107.597 32.5313 107.566 32.94 107.449 33.5123C107.331 34.0911 107.171 34.6707 106.97 35.2514C106.766 35.842 106.543 36.3931 106.302 36.9055C106.064 37.4125 105.866 37.7099 105.724 37.8628C105.442 38.1668 105.195 38.4875 105.026 38.8228C104.882 39.1101 104.755 39.4533 104.743 39.8236C104.733 40.113 104.777 40.4134 104.903 40.7006C104.982 40.8801 105.078 41.0546 105.196 41.2151C105.503 41.6323 105.94 41.8751 106.378 42.018C107.098 42.2525 107.861 41.9734 108.483 41.6388Z" fill="#AF2FFF" stroke="white" stroke-width="2"/>
<path d="M110.144 38.3635C111.079 37.9325 113.318 37.433 114.795 38.8832" stroke="white" stroke-linecap="round"/>
<path d="M14.4015 36.8456C14.7438 36.9937 15.1157 37.1088 15.5113 37.1956C16.2383 37.3553 17.0091 37.2763 17.7946 37.0262C18.5659 36.79 19.2658 36.399 19.886 35.857C20.5064 35.3148 20.9946 34.6694 21.3367 33.9241C21.6862 33.1628 21.8473 32.338 21.837 31.4689C21.826 30.5423 21.5615 29.6418 21.0933 28.7771L18.0325 23.1233C17.8444 22.7759 17.5113 22.355 16.9557 22.2441L16.7481 23.2485L16.9557 22.2441C16.5698 22.1671 16.1738 22.2317 15.8171 22.4513C15.4175 22.6974 15.2015 23.0843 15.0898 23.4342C14.9124 23.9893 15.0463 24.5052 15.2587 24.8975L16.7989 27.7425C16.7786 27.7454 16.7582 27.7485 16.7378 27.7516L16.8527 28.7645L16.7378 27.7516C16.2859 27.821 15.8345 27.9774 15.3875 28.2L15.3695 28.209L15.3518 28.2187C14.5838 28.641 13.933 29.1657 13.4322 29.8082C12.9942 30.3702 12.6392 30.9408 12.3825 31.5208C12.2419 31.8249 12.1202 32.135 12.0176 32.4509C11.7555 32.4039 11.4878 32.3686 11.2148 32.3447L11.2148 32.3447L11.2078 32.3441C10.6574 32.3001 10.0724 32.3199 9.45628 32.3969C8.76214 32.4836 8.09743 32.7115 7.46755 33.0723C6.93344 33.3757 6.46624 33.7373 6.10759 34.175C6.02456 34.2764 5.94512 34.3775 5.86962 34.4783L5.62122 34.0195C5.32227 33.4673 5.03481 32.9459 4.75887 32.4556C4.62455 32.217 4.52289 32.0312 4.45173 31.8954C4.41608 31.8274 4.39066 31.7767 4.37369 31.7412C4.36637 31.7259 4.36197 31.7161 4.35977 31.7112L4.33797 31.6491L4.2998 31.5786C4.10984 31.2277 3.80063 30.8824 3.32753 30.7472C2.9402 30.6365 2.53223 30.6796 2.16258 30.8926C1.76071 31.1036 1.44091 31.4685 1.31496 31.9698C1.18015 32.5063 1.33054 32.9918 1.52602 33.3529L4.70823 39.2308C4.86709 39.5243 5.11796 39.854 5.41328 40.2006C5.78818 40.6405 6.25549 40.9981 6.79288 41.285C7.38844 41.6029 8.0621 41.7644 8.78899 41.7987C9.62749 41.8383 10.4951 41.5778 11.3651 41.1172C12.1429 40.712 12.8008 40.2166 13.2676 39.5995C13.6625 39.0776 13.9703 38.5371 14.1547 37.9787C14.2808 37.597 14.37 37.216 14.4015 36.8456Z" fill="#FF4BBD" stroke="white" stroke-width="2"/>
<path d="M18.8389 30.4189C19.0292 30.7233 19.6951 32.2451 18.2681 34.0714" stroke="white" stroke-linecap="round"/>
<path d="M91.2143 13.0276L92.7585 12.1838L91.2211 11.2372L78.0386 3.1206L76.514 2.18191L76.5878 4.01476L77.1147 17.1082L75.3191 20.425L73.927 19.5679L73.0755 19.0436L72.5994 19.923L71.7432 21.5046L71.2671 22.384L72.1186 22.9083L78.0962 26.5887L78.9477 27.113L79.4238 26.2336L80.28 24.652L80.7561 23.7726L79.9046 23.2483L78.5125 22.3913L80.3759 18.9495L91.2143 13.0276Z" fill="#57A7E9" stroke="white" stroke-width="2"/>
<path d="M80.3276 15.8707L84.3234 13.7401" stroke="white" stroke-linecap="round"/>
<path d="M50.8497 8.61085L50.8532 8.59098C50.7276 8.5693 50.4764 8.47533 50.0221 8.27034C49.9232 8.22574 49.8168 8.17695 49.7046 8.12549C49.3591 7.967 48.9585 7.78321 48.5516 7.61838C47.5191 7.20013 46.0784 6.73845 44.7556 7.17929C43.7088 7.52817 43.1735 7.86319 42.7645 8.17781C42.6841 8.23964 42.6188 8.29132 42.5633 8.33523C42.3528 8.50186 42.2838 8.55652 42.0686 8.62827C41.8575 8.69868 41.7778 8.6959 41.5191 8.6869C41.4502 8.6845 41.3684 8.68166 41.2681 8.67964C40.756 8.66934 40.1331 8.72042 39.0864 9.06924L39.0864 9.06927C37.7769 9.5058 36.8538 10.7412 36.2334 11.7045C35.9882 12.0852 35.7587 12.4767 35.5594 12.8167C35.4946 12.9273 35.433 13.0324 35.3751 13.1299C35.1124 13.5723 34.9496 13.8141 34.848 13.9185L34.8314 13.936L35.5646 14.6159C34.8314 13.936 34.8311 13.9363 34.8309 13.9365L34.8303 13.9371L34.8292 13.9383L34.8268 13.941L34.821 13.9473L34.806 13.9641C34.7946 13.9771 34.7803 13.9936 34.7636 14.0135C34.7304 14.0533 34.6874 14.1072 34.6387 14.1738C34.5424 14.3055 34.4184 14.4945 34.3055 14.7288C34.0854 15.1854 33.8641 15.9087 34.1029 16.7237L34.1031 16.7243C34.2229 17.1319 34.4337 17.4718 34.7285 17.7232C35.0186 17.9706 35.337 18.0873 35.6074 18.1376C35.6462 18.1448 35.6844 18.1508 35.7218 18.1556C35.6902 18.4035 35.7088 18.6631 35.7866 18.9287L50.8497 8.61085ZM50.8497 8.61085C50.8688 8.60082 50.8795 8.5959 50.8796 8.59591L50.8804 8.59607L50.8821 8.59641L50.8858 8.59718L50.8945 8.59901L50.917 8.60397C50.9342 8.60786 50.9556 8.61298 50.9809 8.6195C51.0312 8.63251 51.0975 8.65128 51.1754 8.67723C51.3294 8.72852 51.5387 8.81115 51.7637 8.93922C52.2076 9.19189 52.7881 9.66803 53.0297 10.4909L53.0297 10.4912C53.288 11.3718 52.9829 12.062 52.5782 12.4882C52.5309 12.5381 52.4831 12.5837 52.4356 12.6253L50.8497 8.61085ZM52.866 15.495C52.9925 14.688 52.9939 13.9055 52.8242 13.3268L35.7866 18.9288C35.9572 19.5108 36.3801 20.16 36.9213 20.7532C37.4802 21.3659 38.2295 21.9902 39.1413 22.4993C40.9794 23.5258 43.4925 24.0884 46.3935 23.1218L46.3936 23.1218C49.2893 22.1566 51.0347 20.1801 51.9835 18.2484C52.4556 17.2871 52.7352 16.3293 52.866 15.495ZM40.588 16.0555C40.7729 15.9104 40.9278 15.7764 41.0553 15.6584C41.2249 15.6921 41.4236 15.7259 41.6429 15.753C42.3133 15.8359 43.2662 15.8675 44.1779 15.5635C45.0863 15.2607 45.846 14.6602 46.3468 14.1907C46.5169 14.0311 46.6652 13.879 46.788 13.7463C46.9361 13.7634 47.1074 13.7776 47.3016 13.7854C47.141 13.9656 46.9957 14.1444 46.8562 14.316C46.83 14.3482 46.804 14.3801 46.7782 14.4117C46.2149 15.102 45.6823 15.7197 44.2839 16.186C43.5576 16.4281 43.0191 16.4871 42.5854 16.4724C42.1438 16.4575 41.766 16.3659 41.318 16.2446C41.281 16.2346 41.2437 16.2244 41.2061 16.2141C41.0093 16.1605 40.8045 16.1047 40.588 16.0555Z" fill="#FF3F79" stroke="white" stroke-width="2" stroke-linejoin="round"/>
<path d="M49.8416 15.6094C49.6513 16.3196 48.9854 17.9226 47.8438 18.6531" stroke="white" stroke-linecap="round"/>
<path d="M46.1309 9.52167L47.2725 9.82604" stroke="white" stroke-linecap="round"/>
</svg>
