<svg width="102" height="41" viewBox="0 0 102 41" fill="none" xmlns="http://www.w3.org/2000/svg">
<path d="M97.5732 27.2493L99.3596 27.5962L101.129 27.2493L101.129 37.309L97.5732 37.309L97.5732 27.2493ZM99.3423 26.4342C98.7295 26.4342 98.2323 26.2838 97.8507 25.9832C97.4691 25.671 97.2783 25.249 97.2783 24.7171C97.2783 24.1968 97.4691 23.7805 97.8507 23.4683C98.2323 23.1561 98.7295 23 99.3423 23C99.9782 23 100.481 23.1561 100.851 23.4683C101.233 23.7805 101.424 24.1968 101.424 24.7171C101.424 25.249 101.233 25.671 100.851 25.9832C100.481 26.2838 99.9782 26.4342 99.3423 26.4342Z" fill="black"/>
<path d="M86.1873 29.6256L95.6226 29.6256L95.6226 32.6608L86.1873 32.6608L86.1873 29.6256ZM95.9521 24.3009L95.9521 27.3361L86.3087 27.3361L88.0258 25.6191L88.0258 37.3091L84.4355 37.3091L84.4355 24.3009L95.9521 24.3009Z" fill="black"/>
<path d="M73.9712 40.4479C73.2427 40.4479 72.5952 40.3554 72.0286 40.1704C71.462 39.997 70.9128 39.7252 70.3809 39.3552L70.3809 36.8923C70.9244 37.2392 71.4331 37.4878 71.9072 37.6381C72.3813 37.7885 72.9016 37.8636 73.4682 37.8636C73.9423 37.8636 74.3643 37.7595 74.7343 37.5514C75.1043 37.3433 75.405 36.9617 75.6362 36.4067L79.4346 27.405L83.1983 27.405L78.446 37.4994C78.1107 38.2278 77.7002 38.806 77.2145 39.2338C76.7405 39.6732 76.2259 39.9854 75.6709 40.1704C75.1159 40.3554 74.5493 40.4479 73.9712 40.4479ZM74.0926 36.3893L69.8779 27.405L73.7804 27.405L77.5094 36.3893L74.0926 36.3893Z" fill="black"/>
<path d="M57.0645 37.3086L61.6607 31.7584L61.6433 32.7991L57.3246 27.405L61.2618 27.405L64.0542 30.8218L63.0135 30.8218L65.806 27.405L69.6911 27.405L65.2162 32.8338L65.0428 31.4289L69.9686 37.3086L65.9447 37.3086L62.9095 33.649L64.0195 33.649L61.0189 37.3086L57.0645 37.3086Z" fill="black"/>
<path d="M51.7232 37.587C50.5207 37.587 49.4453 37.3673 48.4972 36.9279C47.5606 36.4885 46.8205 35.8757 46.2771 35.0894C45.7336 34.2916 45.4619 33.3666 45.4619 32.3144C45.4619 31.2853 45.7221 30.3834 46.2424 29.6087C46.7627 28.8224 47.4738 28.2096 48.3757 27.7702C49.2892 27.3308 50.3183 27.1111 51.463 27.1111C52.654 27.1111 53.6657 27.3712 54.4983 27.8916C55.3424 28.4003 55.9899 29.123 56.4408 30.0596C56.9033 30.9962 57.1346 32.1004 57.1346 33.3724L48.3237 33.3724L48.3237 31.239L55.14 31.239L53.9779 31.9848C53.9317 31.4761 53.8045 31.0482 53.5964 30.7013C53.3882 30.3429 53.1107 30.0712 52.7638 29.8862C52.4285 29.7012 52.0238 29.6087 51.5497 29.6087C51.0294 29.6087 50.5842 29.7127 50.2142 29.9209C49.8442 30.129 49.5552 30.4181 49.347 30.7881C49.1389 31.1465 49.0348 31.5686 49.0348 32.0542C49.0348 32.6786 49.1736 33.2105 49.4511 33.6499C49.7402 34.0777 50.1564 34.4072 50.6999 34.6385C51.2549 34.8697 51.9313 34.9854 52.7292 34.9854C53.4576 34.9854 54.1803 34.8929 54.8972 34.7079C55.6256 34.5113 56.2847 34.2396 56.8744 33.8927L56.8744 36.1474C56.1922 36.6099 55.4117 36.9684 54.533 37.2228C53.6657 37.4656 52.7292 37.587 51.7232 37.587Z" fill="black"/>
<path d="M31 33.0418L34.6596 33.0418C34.7174 33.4003 34.8851 33.7125 35.1626 33.9784C35.4401 34.2444 35.8101 34.4525 36.2727 34.6028C36.7467 34.7416 37.3017 34.8109 37.9377 34.8109C38.8165 34.8109 39.5102 34.7011 40.019 34.4814C40.5278 34.2501 40.7822 33.9148 40.7822 33.4754C40.7822 33.1401 40.6376 32.88 40.3485 32.6949C40.0595 32.5099 39.5045 32.377 38.6835 32.296L36.2553 32.0706C34.4631 31.9087 33.1622 31.504 32.3529 30.8565C31.5435 30.1974 31.1388 29.3128 31.1388 28.2028C31.1388 27.3009 31.3989 26.5377 31.9192 25.9133C32.4511 25.289 33.1912 24.8207 34.1393 24.5085C35.099 24.1847 36.2148 24.0228 37.4867 24.0228C38.7355 24.0228 39.8456 24.2021 40.8168 24.5605C41.7881 24.9074 42.557 25.4046 43.1236 26.0521C43.7018 26.6996 44.014 27.4512 44.0602 28.3069L40.4179 28.3069C40.3717 27.9947 40.2214 27.7287 39.967 27.509C39.7242 27.2778 39.3888 27.1043 38.961 26.9887C38.5332 26.8615 38.0186 26.7979 37.4174 26.7979C36.608 26.7979 35.9662 26.9078 35.4922 27.1274C35.0181 27.3356 34.781 27.6478 34.781 28.064C34.781 28.3647 34.9198 28.6075 35.1973 28.7925C35.4864 28.9775 36.0009 29.1047 36.7409 29.1741L39.3252 29.4342C40.5625 29.5499 41.5511 29.7522 42.2911 30.0413C43.0311 30.3188 43.5688 30.7061 43.9041 31.2033C44.2394 31.7005 44.4071 32.3192 44.4071 33.0592C44.4071 33.9726 44.1354 34.7705 43.5919 35.4527C43.0485 36.1233 42.2853 36.6494 41.3025 37.031C40.3196 37.401 39.1749 37.586 37.8683 37.586C36.527 37.586 35.3418 37.401 34.3128 37.031C33.2952 36.6494 32.4974 36.1175 31.9192 35.4353C31.3411 34.7416 31.0347 33.9437 31 33.0418Z" fill="black"/>
<path fill-rule="evenodd" clip-rule="evenodd" d="M0.0123981 17.8141C-0.146835 15.4255 1.19755 10.5308 5.79907 7.5139C6.0871 7.32506 6.46528 7.51549 6.51852 7.85577C6.78389 9.55202 7.31128 10.6534 8.23504 11.563C8.36011 11.6862 8.54626 11.7216 8.71002 11.6584C12.3451 10.2552 15.1762 7.43178 14.1727 0.548469C14.1173 0.168572 14.4989 -0.128316 14.8356 0.056291C18.9819 2.33022 26.2458 8.92956 26.1347 17.8141C26.1347 25.4866 21.3314 29.3164 16.8368 30.712C17.9894 32.0809 18.7123 33.8829 18.7123 35.3608C18.7123 36.1527 18.5047 36.7665 18.1348 37.2396L19.8814 37.7076C20.1626 37.7829 20.4443 37.5905 20.4686 37.3005C20.5568 36.2491 20.6433 34.5223 20.5195 33.1675C20.3862 31.7105 22.0909 31.9764 23.2375 32.3834C23.4602 32.4625 23.5754 32.7024 23.5142 32.9307L21.7547 39.4976C21.6868 39.7509 21.4263 39.9013 21.173 39.8334L16.1322 38.4827C16.0937 38.4724 16.0576 38.4577 16.0243 38.4392C15.1342 38.6586 14.0792 38.7316 12.9482 38.7316C11.7807 38.7316 10.6942 38.6538 9.78642 38.4175C9.74379 38.4463 9.69571 38.4687 9.64321 38.4827L4.6024 39.8334C4.34903 39.9013 4.0886 39.7509 4.02071 39.4976L2.26112 32.9307C2.19995 32.7024 2.31513 32.4625 2.53787 32.3834C3.6845 31.9764 5.38914 31.7105 5.25591 33.1675C5.13202 34.5223 5.21855 36.2491 5.30677 37.3005C5.33111 37.5905 5.61279 37.7829 5.89397 37.7076L7.74092 37.2127C7.38396 36.7433 7.18417 36.1378 7.18417 35.3608C7.18417 33.8802 7.90971 32.0743 9.06595 30.7044C4.65394 29.2421 0.0123981 25.2159 0.0123981 17.8141Z" fill="black"/>
<path d="M4.64356 18.8748C4.64353 17.8841 4.93495 16.916 5.48054 16.0942C6.02612 15.2723 6.80107 14.6342 7.70626 14.2615C8.61144 13.8887 9.60572 13.7982 10.5619 14.0015C11.195 14.1362 11.7924 14.3956 12.3215 14.7617C12.7657 15.069 13.3821 15.069 13.8263 14.7617C14.3555 14.3956 14.9528 14.1362 15.5859 14.0015C16.5421 13.7982 17.5364 13.8887 18.4416 14.2615C19.3468 14.6342 20.1217 15.2723 20.6673 16.0942C21.2129 16.916 21.5043 17.8841 21.5043 18.8748C21.5062 19.6525 21.3275 20.4197 20.9826 21.1143C20.6377 21.809 20.1364 22.4115 19.5192 22.8732L13.9625 27.5161C13.6535 27.7744 13.264 27.9127 12.8636 27.9064C12.4632 27.9 12.0782 27.7493 11.7773 27.4814L6.36504 22.6606C5.82477 22.1937 5.391 21.6133 5.09376 20.9597C4.79653 20.306 4.64291 19.5946 4.64356 18.8748Z" fill="white"/>
<path fill-rule="evenodd" clip-rule="evenodd" d="M11.0182 18.3173C11.1265 18.111 10.9039 17.8884 10.6976 17.9967L9.63558 18.5541C9.56648 18.5903 9.48397 18.5903 9.41487 18.5541L8.35287 17.9967C8.14657 17.8884 7.92397 18.111 8.03224 18.3173L8.5896 19.3793C8.62587 19.4484 8.62587 19.5309 8.5896 19.6L8.03224 20.662C7.92397 20.8683 8.14657 21.0909 8.35287 20.9827L9.41487 20.4253C9.48397 20.389 9.56648 20.389 9.63558 20.4253L10.6976 20.9827C10.9039 21.0909 11.1265 20.8683 11.0182 20.662L10.4609 19.6C10.4246 19.5309 10.4246 19.4484 10.4609 19.3793L11.0182 18.3173ZM18.38 18.3173C18.4882 18.111 18.2656 17.8884 18.0593 17.9967L16.9973 18.5541C16.9282 18.5903 16.8457 18.5903 16.7766 18.5541L15.7146 17.9967C15.5083 17.8884 15.2857 18.111 15.394 18.3173L15.9513 19.3793C15.9876 19.4484 15.9876 19.5309 15.9513 19.6L15.394 20.662C15.2857 20.8683 15.5083 21.0909 15.7146 20.9827L16.7766 20.4253C16.8457 20.389 16.9282 20.389 16.9973 20.4253L18.0593 20.9827C18.2656 21.0909 18.4882 20.8683 18.38 20.662L17.8226 19.6C17.7863 19.5309 17.7863 19.4484 17.8226 19.3793L18.38 18.3173Z" fill="black"/>
<path d="M43.6416 0.776123L75.0744 0.776123C80.0038 0.776123 83.9998 4.77215 83.9998 9.7015V9.7015C83.9998 14.6308 80.0038 18.6269 75.0744 18.6269L43.6416 18.6269L43.6416 0.776123Z" fill="url(#paint0_linear_84_1960)"/>
<path d="M48.9927 5.8794e-08L37.6641 0L39.0801 2.83215L47.5766 2.83216L48.9927 5.8794e-08Z" fill="url(#paint1_linear_84_1960)"/>
<path d="M47.5766 2.83216L37.6641 0L39.0801 2.83215L47.5766 2.83216Z" fill="url(#paint2_linear_84_1960)"/>
<path d="M47.5767 2.83167L51.825 7.0799L51.825 7.78794L43.3285 16.6384L34.832 7.78794L34.832 7.0799L39.0803 2.83167L47.5767 2.83167Z" fill="url(#paint3_linear_84_1960)"/>
<path d="M48.9932 7.34925e-09L54.6575 6.01833L51.8254 7.08039L47.5771 2.83215L48.9932 7.34925e-09Z" fill="#C813EC"/>
<path d="M54.6574 8.8501L54.6574 6.01794L51.8252 7.08L51.8252 7.78804L54.6574 8.8501Z" fill="#9F03CE"/>
<path d="M31.9999 8.8501L31.9999 6.01794L34.832 7.08L34.832 7.78804L31.9999 8.8501Z" fill="#F143FA"/>
<path d="M32.0005 8.85051L43.3291 20.1791L43.3291 16.6389L34.8326 7.78845L32.0005 8.85051Z" fill="#A917E7"/>
<path d="M54.6577 8.85051L43.3291 20.1791L43.3291 16.6389L51.8256 7.78845L54.6577 8.85051Z" fill="url(#paint4_linear_84_1960)"/>
<path d="M37.665 -7.34925e-09L32.0007 6.01833L34.8328 7.08039L39.0811 2.83215L37.665 -7.34925e-09Z" fill="url(#paint5_linear_84_1960)"/>
<path d="M36.9561 6.72598L36.9561 6.01794L40.1422 6.01794L43.3284 10.2662L43.6824 10.2662L46.5146 6.01794L49.7008 6.01794L49.7008 6.72598L48.6387 6.72598L44.7445 12.3903L42.2663 12.3903L38.0181 6.72598L36.9561 6.72598Z" fill="white" fill-opacity="0.7"/>
<path fill-rule="evenodd" clip-rule="evenodd" d="M57.285 6.41249L56.0596 6.41249L56.0596 5.43213L58.943 5.43213L58.943 9.90142L63.4123 5.43213L66.7859 5.43213L57.285 14.7456L57.285 6.41249ZM66.8436 14.5005L64.6378 14.5005L67.3338 5.43213L69.7847 5.43213L66.8436 14.5005ZM72.5379 5.43213L70.5772 7.63794L76.0082 7.63794C76.5954 7.63794 76.9457 8.29244 76.62 8.78107L76.4936 8.97065C76.1299 9.51612 75.5177 9.84375 74.8622 9.84375L69.8419 9.84375L68.3714 14.5005L70.5772 14.5005L71.3125 12.0496L74.6574 12.0496C76.0425 12.0496 77.3249 11.3189 78.031 10.1273L78.6205 9.13251C79.5887 7.49873 78.4111 5.43213 76.512 5.43213L72.5379 5.43213Z" fill="white"/>
<defs>
<linearGradient id="paint0_linear_84_1960" x1="65.0077" y1="0.776123" x2="65.0077" y2="18.6269" gradientUnits="userSpaceOnUse">
<stop stop-color="#C477FF"/>
<stop offset="1" stop-color="#7F46DB"/>
</linearGradient>
<linearGradient id="paint1_linear_84_1960" x1="35.5399" y1="4.95627" x2="48.9927" y2="1.41608" gradientUnits="userSpaceOnUse">
<stop stop-color="#8CDEFF"/>
<stop offset="1" stop-color="#C350FD"/>
</linearGradient>
<linearGradient id="paint2_linear_84_1960" x1="39.4342" y1="2.47814" x2="46.5145" y2="4.95627" gradientUnits="userSpaceOnUse">
<stop stop-color="#AF8CFF"/>
<stop offset="1" stop-color="#B550FD"/>
</linearGradient>
<linearGradient id="paint3_linear_84_1960" x1="39.4343" y1="2.47765" x2="45.4526" y2="14.8683" gradientUnits="userSpaceOnUse">
<stop stop-color="#8CB2FF"/>
<stop offset="1" stop-color="#B937FF"/>
</linearGradient>
<linearGradient id="paint4_linear_84_1960" x1="48.9934" y1="7.78845" x2="48.9934" y2="20.1791" gradientUnits="userSpaceOnUse">
<stop stop-color="#5506CC"/>
<stop offset="1" stop-color="#E205DB"/>
</linearGradient>
<linearGradient id="paint5_linear_84_1960" x1="35.5409" y1="-1.83731e-08" x2="35.5409" y2="7.08039" gradientUnits="userSpaceOnUse">
<stop stop-color="#87C3FF"/>
<stop offset="1" stop-color="#CB24FE"/>
</linearGradient>
</defs>
</svg>
