<svg width="23" height="28" viewBox="0 0 23 28" fill="none" xmlns="http://www.w3.org/2000/svg">
<path fill-rule="evenodd" clip-rule="evenodd" d="M0.0109105 15.6766C-0.129216 13.5746 1.05386 9.26728 5.10325 6.61233C5.35673 6.44615 5.68953 6.61373 5.73638 6.91319C5.96991 8.4059 6.43402 9.37513 7.24694 10.1756C7.35701 10.284 7.52082 10.3151 7.66493 10.2595C10.8639 9.02473 13.3553 6.54006 12.4721 0.48266C12.4234 0.148346 12.7593 -0.11292 13.0555 0.0495368C16.7043 2.05062 23.0966 7.85813 22.9989 15.6766C22.9989 24.5584 15.6845 27.5886 11.2959 27.5886C6.9073 27.5886 0.0109105 24.1404 0.0109105 15.6766ZM4.82249 14.1634C4.34237 14.8866 4.08592 15.7386 4.08594 16.6104C4.08537 17.2438 4.22055 17.8698 4.48213 18.4451C4.7437 19.0203 5.12542 19.531 5.60087 19.9419L10.3638 24.1843C10.6285 24.4201 10.9674 24.5526 11.3197 24.5582C11.672 24.5638 12.0148 24.4421 12.2867 24.2149L17.1767 20.129C17.7199 19.7227 18.161 19.1925 18.4645 18.5812C18.768 17.9699 18.9253 17.2947 18.9236 16.6104C18.9236 15.7386 18.6672 14.8866 18.1871 14.1634C17.7069 13.4401 17.025 12.8786 16.2284 12.5506C15.4318 12.2225 14.5568 12.1429 13.7154 12.3218C13.1582 12.4403 12.6325 12.6686 12.1669 12.9908C11.776 13.2612 11.2335 13.2612 10.8427 12.9908C10.377 12.6686 9.85132 12.4403 9.29417 12.3218C8.45271 12.1429 7.57773 12.2225 6.78116 12.5506C5.98458 12.8786 5.30261 13.4401 4.82249 14.1634ZM9.41353 15.8389C9.59507 15.7436 9.79097 15.9395 9.69569 16.1211L9.2052 17.0557C9.17329 17.1165 9.17329 17.1891 9.2052 17.2499L9.69569 18.1845C9.79097 18.366 9.59507 18.5619 9.41353 18.4666L8.47895 17.9761C8.41814 17.9442 8.34553 17.9442 8.28472 17.9761L7.35015 18.4666C7.1686 18.5619 6.97271 18.366 7.06798 18.1845L7.55847 17.2499C7.59039 17.1891 7.59039 17.1165 7.55847 17.0557L7.06798 16.1211C6.97271 15.9395 7.1686 15.7436 7.35015 15.8389L8.28472 16.3294C8.34553 16.3613 8.41814 16.3613 8.47895 16.3294L9.41353 15.8389ZM16.1742 16.1211C16.2695 15.9395 16.0736 15.7436 15.892 15.8389L14.9575 16.3294C14.8967 16.3613 14.824 16.3613 14.7632 16.3294L13.8287 15.8389C13.6471 15.7436 13.4512 15.9395 13.5465 16.1211L14.037 17.0557C14.0689 17.1165 14.0689 17.1891 14.037 17.2499L13.5465 18.1845C13.4512 18.366 13.6471 18.5619 13.8287 18.4666L14.7632 17.9761C14.824 17.9442 14.8967 17.9442 14.9575 17.9761L15.892 18.4666C16.0736 18.5619 16.2695 18.366 16.1742 18.1845L15.6837 17.2499C15.6518 17.1891 15.6518 17.1165 15.6837 17.0557L16.1742 16.1211Z" fill="url(#paint0_linear_17_903)"/>
<defs>
<linearGradient id="paint0_linear_17_903" x1="11.5" y1="27.5886" x2="11.5" y2="0" gradientUnits="userSpaceOnUse">
<stop stop-color="#FFA8E8"/>
<stop offset="1" stop-color="#FF00D9"/>
</linearGradient>
</defs>
</svg>
