<svg width="32" height="34" viewBox="0 0 32 34" fill="none" xmlns="http://www.w3.org/2000/svg">
<path d="M17.8152 7.82379L21.1608 10.4921L10.8041 23.4774L7.45847 20.8091L17.8152 7.82379Z" fill="#BFAACF"/>
<path d="M14.467 5.15336L17.8126 7.8217L7.45584 20.807L4.11026 18.1387L14.467 5.15336ZM21.1608 10.4922L25.271 5.3388L17.8152 7.82381L21.1608 10.4922Z" fill="#A190AD"/>
<path d="M25.271 5.3388L14.467 5.15336L17.8152 7.82381L25.271 5.3388Z" fill="#7F708A"/>
<path d="M14.1505 26.1465L10.8049 23.4782L21.1616 10.4929L24.5072 13.1612L14.1505 26.1465Z" fill="#A190AD"/>
<path d="M17.498 28.8163L14.1524 26.148L24.5091 13.1627L27.8547 15.831L17.498 28.8163ZM21.1608 10.4922L25.271 5.33881L24.5064 13.1605L21.1608 10.4922Z" fill="#7F708A"/>
<path d="M25.271 5.33881L27.8546 15.831L24.5064 13.1605L25.271 5.33881Z" fill="#6B5C76"/>
<path d="M10.8041 23.4775L6.6939 28.6308L7.4585 20.8091L10.8041 23.4775Z" fill="#A190AD"/>
<path d="M6.69398 28.6308L4.11035 18.1387L7.45858 20.8091L6.69398 28.6308ZM10.8042 23.4775L6.69398 28.6308L14.1497 26.1458L10.8042 23.4775Z" fill="#7F708A"/>
<path d="M6.69378 28.6308L17.4978 28.8162L14.1495 26.1458L6.69378 28.6308Z" fill="#6B5C76"/>
</svg>
