<svg width="32" height="34" viewBox="0 0 32 34" fill="none" xmlns="http://www.w3.org/2000/svg">
<path d="M17.8152 7.82379L21.1608 10.4921L10.8041 23.4774L7.45847 20.8091L17.8152 7.82379Z" fill="#FFBFFD"/>
<path d="M14.467 5.15336L17.8126 7.8217L7.45584 20.807L4.11026 18.1387L14.467 5.15336ZM21.1608 10.4922L25.271 5.3388L17.8152 7.82381L21.1608 10.4922Z" fill="#FF98E3"/>
<path d="M25.271 5.3388L14.467 5.15336L17.8152 7.82381L25.271 5.3388Z" fill="#FB7DC9"/>
<path d="M14.1505 26.1465L10.8049 23.4782L21.1616 10.4929L24.5072 13.1612L14.1505 26.1465Z" fill="#FF98E3"/>
<path d="M17.498 28.8163L14.1524 26.148L24.5091 13.1627L27.8547 15.831L17.498 28.8163ZM21.1608 10.4922L25.271 5.33881L24.5064 13.1605L21.1608 10.4922Z" fill="#FB7DC9"/>
<path d="M25.271 5.33881L27.8546 15.831L24.5064 13.1605L25.271 5.33881Z" fill="#FA56A2"/>
<path d="M10.8041 23.4775L6.6939 28.6308L7.4585 20.8091L10.8041 23.4775Z" fill="#FF98E3"/>
<path d="M6.69398 28.6308L4.11035 18.1387L7.45858 20.8091L6.69398 28.6308ZM10.8042 23.4775L6.69398 28.6308L14.1497 26.1458L10.8042 23.4775Z" fill="#FB7DC9"/>
<path d="M6.69378 28.6308L17.4978 28.8162L14.1495 26.1458L6.69378 28.6308Z" fill="#FA56A2"/>
<path d="M22.6651 10.6307C22.1167 10.4885 21.6833 10.0552 21.5411 9.50669C21.5276 9.45252 21.4565 9.45252 21.4395 9.50669C21.2973 10.0552 20.864 10.4885 20.3155 10.6307C20.2614 10.6442 20.2614 10.7153 20.3155 10.7323C20.864 10.8745 21.2973 11.3078 21.4395 11.8563C21.4531 11.9104 21.5242 11.9104 21.5411 11.8563C21.6833 11.3078 22.1167 10.8745 22.6651 10.7323C22.7193 10.7153 22.7193 10.6442 22.6651 10.6307Z" fill="white"/>
<path d="M23.2382 13.0444C23.3973 13.7418 23.9457 14.2937 24.6466 14.4528C24.6973 14.463 24.6973 14.5341 24.6466 14.5476C23.9491 14.7067 23.3973 15.2552 23.2382 15.956C23.2246 16.0102 23.1569 16.0102 23.1434 15.956C22.9842 15.2586 22.4358 14.7067 21.735 14.5476C21.6808 14.5341 21.6808 14.4664 21.735 14.4528C22.4324 14.2937 22.9842 13.7452 23.1434 13.0444C23.1569 12.9902 23.2246 12.9902 23.2382 13.0444Z" fill="white"/>
</svg>
