<svg width="26" height="27" viewBox="0 0 26 27" fill="none" xmlns="http://www.w3.org/2000/svg">
<path fill-rule="evenodd" clip-rule="evenodd" d="M12.9549 4.35151C11.7833 5.52308 11.7833 7.42258 12.9549 8.59416L16.4277 12.067C17.5993 13.2386 19.4988 13.2386 20.6703 12.067L24.1432 8.59415C25.3147 7.42258 25.3147 5.52308 24.1432 4.35151L20.6703 0.878678C19.4988 -0.292895 17.5993 -0.292892 16.4277 0.878681L12.9549 4.35151ZM3 1.01717C1.34315 1.01717 0 2.36032 0 4.01717V8.9285C0 10.5854 1.34315 11.9285 3 11.9285H7.91133C9.56818 11.9285 10.9113 10.5853 10.9113 8.92849V4.01717C10.9113 2.36031 9.56818 1.01717 7.91133 1.01717H3ZM0 18.2019C0 16.545 1.34315 15.2019 3 15.2019H7.91133C9.56818 15.2019 10.9113 16.545 10.9113 18.2019V23.1132C10.9113 24.7701 9.56818 26.1132 7.91133 26.1132H3C1.34315 26.1132 0 24.7701 0 23.1132V18.2019ZM16.0936 15.2019C14.4367 15.2019 13.0936 16.545 13.0936 18.2019V23.1132C13.0936 24.7701 14.4367 26.1132 16.0936 26.1132H21.0049C22.6618 26.1132 24.0049 24.7701 24.0049 23.1132V18.2019C24.0049 16.545 22.6618 15.2019 21.0049 15.2019H16.0936Z" fill="#7F708A"/>
</svg>
