<svg width="27" height="40" viewBox="0 0 27 40" fill="none" xmlns="http://www.w3.org/2000/svg">
<path fill-rule="evenodd" clip-rule="evenodd" d="M0.0123981 17.8141C-0.146835 15.4255 1.19755 10.5308 5.79907 7.5139C6.0871 7.32506 6.46528 7.51549 6.51852 7.85577C6.78389 9.55202 7.31128 10.6534 8.23503 11.563C8.36011 11.6862 8.54626 11.7216 8.71002 11.6584C12.3451 10.2552 15.1762 7.43178 14.1727 0.548469C14.1173 0.168572 14.4989 -0.128316 14.8356 0.056291C18.9819 2.33022 26.2458 8.92956 26.1347 17.8141C26.1347 25.4866 21.3314 29.3164 16.8368 30.712C17.9894 32.0809 18.7123 33.8829 18.7123 35.3608C18.7123 36.1527 18.5047 36.7665 18.1348 37.2396L19.8814 37.7076C20.1626 37.7829 20.4443 37.5905 20.4686 37.3005C20.5568 36.2491 20.6433 34.5223 20.5195 33.1675C20.3862 31.7105 22.0909 31.9764 23.2375 32.3834C23.4602 32.4625 23.5754 32.7024 23.5142 32.9307L21.7547 39.4976C21.6868 39.7509 21.4263 39.9013 21.173 39.8334L16.1322 38.4827C16.0937 38.4724 16.0576 38.4577 16.0243 38.4392C15.1342 38.6586 14.0792 38.7316 12.9482 38.7316C11.7807 38.7316 10.6942 38.6538 9.78642 38.4175C9.74379 38.4463 9.69571 38.4687 9.64321 38.4827L4.6024 39.8334C4.34903 39.9013 4.0886 39.7509 4.02071 39.4976L2.26112 32.9307C2.19995 32.7024 2.31513 32.4625 2.53787 32.3834C3.6845 31.9764 5.38914 31.7105 5.25591 33.1675C5.13202 34.5223 5.21855 36.2491 5.30677 37.3005C5.33111 37.5905 5.61279 37.7829 5.89397 37.7076L7.74092 37.2127C7.38396 36.7433 7.18417 36.1378 7.18417 35.3608C7.18417 33.8801 7.90972 32.0743 9.06595 30.7044C4.65394 29.2421 0.0123981 25.2159 0.0123981 17.8141Z" fill="black"/>
<path d="M4.64307 18.8748C4.64305 17.8841 4.93446 16.916 5.48005 16.0942C6.02563 15.2723 6.80058 14.6342 7.70577 14.2615C8.61096 13.8887 9.60523 13.7982 10.5614 14.0015C11.1945 14.1362 11.7919 14.3956 12.321 14.7617C12.7652 15.069 13.3817 15.069 13.8258 14.7617C14.355 14.3956 14.9523 14.1362 15.5855 14.0015C16.5416 13.7982 17.5359 13.8887 18.4411 14.2615C19.3463 14.6342 20.1212 15.2723 20.6668 16.0942C21.2124 16.916 21.5038 17.8841 21.5038 18.8748C21.5057 19.6525 21.327 20.4197 20.9821 21.1143C20.6372 21.809 20.1359 22.4115 19.5187 22.8732L13.962 27.5161C13.653 27.7744 13.2635 27.9127 12.8631 27.9064C12.4627 27.9 12.0777 27.7493 11.7768 27.4814L6.36455 22.6606C5.82428 22.1937 5.39051 21.6133 5.09328 20.9597C4.79604 20.306 4.64243 19.5946 4.64307 18.8748Z" fill="white"/>
<path fill-rule="evenodd" clip-rule="evenodd" d="M11.0177 18.3173C11.126 18.111 10.9034 17.8884 10.6971 17.9967L9.6351 18.5541C9.56599 18.5903 9.48348 18.5903 9.41438 18.5541L8.35238 17.9967C8.14609 17.8884 7.92348 18.111 8.03175 18.3173L8.58911 19.3793C8.62538 19.4484 8.62538 19.5309 8.58911 19.6L8.03175 20.662C7.92348 20.8683 8.14608 21.0909 8.35238 20.9827L9.41438 20.4253C9.48348 20.389 9.56599 20.389 9.6351 20.4253L10.6971 20.9827C10.9034 21.0909 11.126 20.8683 11.0177 20.662L10.4604 19.6C10.4241 19.5309 10.4241 19.4484 10.4604 19.3793L11.0177 18.3173ZM18.3795 18.3173C18.4877 18.111 18.2651 17.8884 18.0588 17.9967L16.9968 18.5541C16.9277 18.5903 16.8452 18.5903 16.7761 18.5541L15.7141 17.9967C15.5078 17.8884 15.2852 18.111 15.3935 18.3173L15.9508 19.3793C15.9871 19.4484 15.9871 19.5309 15.9508 19.6L15.3935 20.662C15.2852 20.8683 15.5078 21.0909 15.7141 20.9827L16.7761 20.4253C16.8452 20.389 16.9277 20.389 16.9968 20.4253L18.0588 20.9827C18.2651 21.0909 18.4877 20.8683 18.3795 20.662L17.8221 19.6C17.7858 19.5309 17.7858 19.4484 17.8221 19.3793L18.3795 18.3173Z" fill="black"/>
</svg>
