<svg width="17" height="16" viewBox="0 0 17 16" fill="none" xmlns="http://www.w3.org/2000/svg">
  <path d="M12.7497 0L4.24969 0L5.31219 2.125L11.6872 2.125L12.7497 0Z" fill="url(#paint0_linear_5245_958)"/>
  <path d="M11.6872 2.125L4.24969 0L5.3122 2.125L11.6872 2.125Z" fill="url(#paint1_linear_5245_958)"/>
  <path d="M11.6876 2.125L14.8751 5.3125V5.84375L8.50012 12.4844L2.12512 5.84375V5.3125L5.31262 2.125L11.6876 2.125Z" fill="url(#paint2_linear_5245_958)"/>
  <path d="M12.75 0L17 4.51562L14.875 5.3125L11.6875 2.125L12.75 0Z" fill="#C813EC"/>
  <path d="M17 6.63965V4.51465L14.875 5.31152V5.84277L17 6.63965Z" fill="#9F03CE"/>
  <path d="M0.00012207 6.63965V4.51465L2.12512 5.31152V5.84277L0.00012207 6.63965Z" fill="#F143FA"/>
  <path d="M0 6.64063L8.5 15.1406V12.4844L2.125 5.84375L0 6.64063Z" fill="#A917E7"/>
  <path d="M17 6.64063L8.5 15.1406V12.4844L14.875 5.84375L17 6.64063Z" fill="url(#paint3_linear_5245_958)"/>
  <path d="M4.25 0L4.76837e-07 4.51562L2.125 5.3125L5.3125 2.125L4.25 0Z" fill="url(#paint4_linear_5245_958)"/>
  <path d="M3.71844 5.0459V4.51465H6.10907L8.49969 7.70215H8.76532L10.8903 4.51465L13.2809 4.51465V5.0459L12.4841 5.0459L9.56219 9.2959H7.70282L4.51532 5.0459H3.71844Z" fill="white" fill-opacity="0.7"/>
  <defs>
    <linearGradient id="paint0_linear_5245_958" x1="2.65594" y1="3.71875" x2="12.7497" y2="1.0625" gradientUnits="userSpaceOnUse">
      <stop stop-color="#8CDEFF"/>
      <stop offset="1" stop-color="#C350FD"/>
    </linearGradient>
    <linearGradient id="paint1_linear_5245_958" x1="5.57782" y1="1.85938" x2="10.8903" y2="3.71875" gradientUnits="userSpaceOnUse">
      <stop stop-color="#AF8CFF"/>
      <stop offset="1" stop-color="#B550FD"/>
    </linearGradient>
    <linearGradient id="paint2_linear_5245_958" x1="5.57825" y1="1.85937" x2="10.0939" y2="11.1562" gradientUnits="userSpaceOnUse">
      <stop stop-color="#8CB2FF"/>
      <stop offset="1" stop-color="#B937FF"/>
    </linearGradient>
    <linearGradient id="paint3_linear_5245_958" x1="12.75" y1="5.84375" x2="12.75" y2="15.1406" gradientUnits="userSpaceOnUse">
      <stop stop-color="#5506CC"/>
      <stop offset="1" stop-color="#E205DB"/>
    </linearGradient>
    <linearGradient id="paint4_linear_5245_958" x1="2.65625" y1="0" x2="2.65625" y2="5.3125" gradientUnits="userSpaceOnUse">
      <stop stop-color="#87C3FF"/>
      <stop offset="1" stop-color="#CB24FE"/>
    </linearGradient>
  </defs>
</svg>
