<svg width="22" height="21" viewBox="0 0 22 21" fill="none" xmlns="http://www.w3.org/2000/svg">
  <circle cx="11" cy="11" r="8" fill="url(#paint0_radial_5245_985)"/>
  <circle cx="11" cy="11" r="8" fill="url(#paint1_linear_5245_985)"/>
  <circle cx="11" cy="11.0003" r="5.71419" fill="url(#paint2_linear_5245_985)"/>
  <g filter="url(#filter0_i_5245_985)">
    <circle cx="10.7715" cy="11.2278" r="5.48562" fill="url(#paint3_radial_5245_985)"/>
  </g>
  <g filter="url(#filter1_f_5245_985)">
    <path d="M10.2707 9.18353C10.5543 8.55612 11.4452 8.55612 11.7288 9.18353L11.7672 9.26857C11.8836 9.52613 12.1272 9.70316 12.4082 9.73426L12.5009 9.74453C13.1852 9.8203 13.4606 10.6677 12.9515 11.1312L12.8825 11.194C12.6735 11.3843 12.5804 11.6708 12.6376 11.9475L12.6565 12.0389C12.7959 12.7132 12.0751 13.2369 11.477 12.8959L11.3959 12.8497C11.1503 12.7098 10.8492 12.7098 10.6036 12.8497L10.5225 12.8959C9.92437 13.2369 9.20355 12.7132 9.34295 12.0389L9.36184 11.9475C9.41907 11.6708 9.326 11.3843 9.11701 11.194L9.04801 11.1312C8.53893 10.6677 8.81425 9.8203 9.49857 9.74453L9.59132 9.73426C9.87224 9.70316 10.1159 9.52613 10.2323 9.26857L10.2707 9.18353Z" fill="#FF7300"/>
  </g>
  <path d="M10.8178 7.9688C10.889 7.81289 11.1105 7.81289 11.1817 7.9688L11.9141 9.57299C11.9432 9.63677 12.0036 9.68064 12.0732 9.68863L13.8253 9.88947C13.9955 9.90899 14.064 10.1196 13.9377 10.2355L12.6383 11.4278C12.5867 11.4752 12.5636 11.5462 12.5776 11.6149L12.9279 13.3432C12.962 13.5112 12.7828 13.6414 12.6336 13.5571L11.0981 12.6898C11.0371 12.6553 10.9624 12.6553 10.9014 12.6898L9.36593 13.5571C9.21669 13.6414 9.0375 13.5112 9.07155 13.3432L9.42194 11.6149C9.43587 11.5462 9.4128 11.4752 9.36115 11.4278L8.0618 10.2355C7.93551 10.1196 8.00396 9.90899 8.17424 9.88947L9.92624 9.68863C9.99589 9.68064 10.0563 9.63677 10.0854 9.57299L10.8178 7.9688Z" fill="#FFF6C9"/>
  <defs>
    <filter id="filter0_i_5245_985" x="5.28583" y="5.74219" width="10.9713" height="10.9717" filterUnits="userSpaceOnUse" color-interpolation-filters="sRGB">
      <feFlood flood-opacity="0" result="BackgroundImageFix"/>
      <feBlend mode="normal" in="SourceGraphic" in2="BackgroundImageFix" result="shape"/>
      <feColorMatrix in="SourceAlpha" type="matrix" values="0 0 0 0 0 0 0 0 0 0 0 0 0 0 0 0 0 0 127 0" result="hardAlpha"/>
      <feOffset/>
      <feGaussianBlur stdDeviation="2"/>
      <feComposite in2="hardAlpha" operator="arithmetic" k2="-1" k3="1"/>
      <feColorMatrix type="matrix" values="0 0 0 0 0.999284 0 0 0 0 0.616225 0 0 0 0 0 0 0 0 1 0"/>
      <feBlend mode="normal" in2="shape" result="effect1_innerShadow_5245_985"/>
    </filter>
    <filter id="filter1_f_5245_985" x="0.785583" y="0.712891" width="20.4283" height="20.29" filterUnits="userSpaceOnUse" color-interpolation-filters="sRGB">
      <feFlood flood-opacity="0" result="BackgroundImageFix"/>
      <feBlend mode="normal" in="SourceGraphic" in2="BackgroundImageFix" result="shape"/>
      <feGaussianBlur stdDeviation="4" result="effect1_foregroundBlur_5245_985"/>
    </filter>
    <radialGradient id="paint0_radial_5245_985" cx="0" cy="0" r="1" gradientUnits="userSpaceOnUse" gradientTransform="translate(8.14286 6.57143) rotate(79.1216) scale(14.4663)">
      <stop stop-color="#FFC400"/>
      <stop offset="1" stop-color="#FF9900"/>
    </radialGradient>
    <linearGradient id="paint1_linear_5245_985" x1="11" y1="3" x2="11" y2="19" gradientUnits="userSpaceOnUse">
      <stop stop-color="#FFE87B"/>
      <stop offset="1" stop-color="#FFDD39"/>
    </linearGradient>
    <linearGradient id="paint2_linear_5245_985" x1="12.4857" y1="5.74327" x2="17.3999" y2="15.8002" gradientUnits="userSpaceOnUse">
      <stop stop-color="#FFAA01"/>
      <stop offset="1" stop-color="#FFCE84"/>
    </linearGradient>
    <radialGradient id="paint3_radial_5245_985" cx="0" cy="0" r="1" gradientUnits="userSpaceOnUse" gradientTransform="translate(10.7715 10.3135) rotate(92.7263) scale(7.20804)">
      <stop stop-color="#FFD753"/>
      <stop offset="1" stop-color="#FF9900"/>
    </radialGradient>
  </defs>
</svg>
