<svg width="32" height="32" viewBox="0 0 32 32" fill="none" xmlns="http://www.w3.org/2000/svg">
  <path d="M28.1928 8.4319L28.1833 8.42233L28.1733 8.41312L23.9142 4.45059L23.3518 3.92734L22.8421 4.50212L5.31358 24.2714L4.845 24.7999L5.34443 25.2993L8.3349 28.2898C12.9693 32.9242 21.1048 31.9601 26.484 26.581C31.8631 21.2018 32.8272 13.0663 28.1928 8.4319Z" fill="#577123" stroke="black" stroke-width="1.5"/>
  <path d="M24.3477 4.58651C19.5016 -0.259581 11.1794 0.460177 5.7714 5.86815C0.363435 11.2761 -0.356322 19.5983 4.48978 24.4444C9.33587 29.2905 17.6581 28.5708 23.0661 23.1628C28.474 17.7548 29.1938 9.43261 24.3477 4.58651Z" fill="#C9FF5D" stroke="black" stroke-width="1.5"/>
  <path d="M19.9451 14.3022L8.4659 14.3022" stroke="black" stroke-width="2" stroke-linecap="round"/>
  <path d="M14.2056 20.0418L14.2056 8.56264" stroke="black" stroke-width="2" stroke-linecap="round"/>
</svg>
