<svg width="35" height="33" viewBox="0 0 35 33" fill="none" xmlns="http://www.w3.org/2000/svg">
  <path fill-rule="evenodd" clip-rule="evenodd" d="M16.972 10.9145C17.315 10.0229 17.2733 9.00616 16.7694 8.13349C15.8652 6.56729 13.8148 6.0582 12.1898 6.99641C10.5648 7.93462 9.98045 9.96484 10.8847 11.531C11.3781 12.3856 12.2126 12.9254 13.1331 13.0872L13.5349 16.6066L13.1084 17.8094L9.24007 17.9053C9.18712 17.7673 9.12276 17.6318 9.04666 17.5C8.23468 16.0936 6.39352 15.6365 4.93432 16.4789C3.47511 17.3214 2.95043 19.1445 3.76241 20.5509C4.5286 21.8779 6.21117 22.3598 7.6245 21.7021L12.5774 26.6662L13.3192 27.9511C13.9651 29.0698 15.4296 29.4334 16.5904 28.7633L28.7682 21.7324C29.9289 21.0623 30.3462 19.6121 29.7004 18.4934L28.5469 16.4956L27.5822 10.8327C28.7389 9.91308 29.0988 8.299 28.364 7.02619C27.552 5.61981 25.7109 5.16267 24.2517 6.00514C22.7925 6.84761 22.2678 8.67067 23.0797 10.0771C23.1562 10.2094 23.2417 10.3334 23.3352 10.4486L21.8423 13.0369L20.0203 13.2787L16.972 10.9145Z" fill="url(#paint0_linear_4517_12)"/>
  <ellipse cx="6.4046" cy="19.025" rx="1.21991" ry="1.17575" transform="rotate(-30 6.4046 19.025)" fill="black"/>
  <path fill-rule="evenodd" clip-rule="evenodd" d="M13.8647 19.1316L14.9072 17.0404L14.0493 11.2556L13.8583 9.96792L14.8604 10.7979L19.3207 14.4922L22.3195 14.2502L25.0289 9.71226L25.7223 8.55077L25.933 9.85542L27.0899 17.0213L27.4707 17.6809L28.1992 18.9426C28.5867 19.6138 28.3363 20.4839 27.6398 20.886L22.0313 24.1241L16.4228 27.3621C15.7264 27.7642 14.8477 27.5461 14.4601 26.8748L13.7317 25.6131L13.324 24.9071L7.42258 19.8897L6.40499 19.0246L7.77142 19.0442L13.8647 19.1316ZM26.2703 17.4016L14.1025 24.4268L8.78901 19.9093L13.8245 19.9816L14.3888 19.9897L14.6402 19.4854L15.6826 17.3941L15.8028 17.1529L15.7641 16.8917L15.0513 12.0856L18.7502 15.1492L19.014 15.3676L19.3642 15.3394L22.363 15.0974L22.8256 15.0601L23.063 14.6625L25.2395 11.0169L26.2703 17.4016ZM14.5084 25.2111L15.2167 26.438C15.3717 26.7065 15.7232 26.7938 16.0018 26.6329L21.6103 23.3948L27.2188 20.1568C27.4974 19.9959 27.5976 19.6479 27.4426 19.3794L26.7342 18.1525L14.5084 25.2111Z" fill="black"/>
  <ellipse cx="13.8274" cy="9.83253" rx="1.45609" ry="1.40338" transform="rotate(-30 13.8274 9.83253)" fill="black"/>
  <ellipse cx="25.721" cy="8.55183" rx="1.21991" ry="1.17575" transform="rotate(-30 25.721 8.55183)" fill="black"/>
  <defs>
    <linearGradient id="paint0_linear_4517_12" x1="-0.184742" y1="14.6683" x2="30.7344" y2="22.3891" gradientUnits="userSpaceOnUse">
      <stop stop-color="#FF5300"/>
      <stop offset="0.235" stop-color="#FCFB79"/>
      <stop offset="0.505" stop-color="#15FFAA"/>
      <stop offset="0.725" stop-color="#FFBEE7"/>
      <stop offset="1" stop-color="#B1FF2A"/>
    </linearGradient>
  </defs>
</svg>
